<?xml version="1.0" encoding="utf-8"?>
<!-- Generator: Adobe Illustrator 15.1.0, SVG Export Plug-In . SVG Version: 6.00 Build 0)  -->


<!DOCTYPE svg PUBLIC "-//W3C//DTD SVG 1.1//EN" "http://www.w3.org/Graphics/SVG/1.1/DTD/svg11.dtd">
<svg version="1.1" id="Layer_1" xmlns="http://www.w3.org/2000/svg" xmlns:xlink="http://www.w3.org/1999/xlink" x="0px" y="0px"
	 width="4320px" height="3320px" viewBox="500 500 3320 3320"  >
<!-- enable-background="new 0 0 4320 4320" xml:space="preserve"-->
<g>
	<g>
		<path fill="#231F20" d="M2423.804,1575.264c0.004,57.944-1.917,115.895-6.043,173.715
			c-4.153,57.813-10.452,115.518-19.915,172.808c-4.773,28.634-10.256,57.183-16.996,85.491
			c-6.783,28.291-14.535,56.426-24.359,84.004c-4.924,13.781-10.31,27.442-16.449,40.851c-6.153,13.396-13.042,26.561-21.225,39.144
			c-4.1,6.285-8.522,12.426-13.429,18.293c-4.905,5.863-10.283,11.469-16.352,16.539c-6.063,5.057-12.851,9.594-20.485,12.951
			c-7.601,3.367-16.113,5.438-24.765,5.594c-8.648,0.182-17.313-1.557-25.152-4.662c-7.871-3.088-14.969-7.418-21.358-12.303
			c-6.396-4.9-12.119-10.375-17.372-16.125c-5.254-5.754-10.03-11.801-14.481-18.006c-8.888-12.423-16.482-25.47-23.339-38.773
			c-6.841-13.315-12.952-26.899-18.483-40.661c-5.543-13.758-10.571-27.669-15.216-41.677c-4.651-14.007-8.905-28.116-12.807-42.302
			c-7.807-28.371-14.499-56.981-20.152-85.759c-11.339-57.554-19.066-115.662-24.165-173.933
			c-5.07-58.279-7.473-116.742-7.487-175.186c0.008-58.443,2.372-116.908,7.427-175.19c5.079-58.274,12.792-116.387,24.122-173.947
			c5.66-28.779,12.323-57.397,20.148-85.768c7.813-28.371,16.961-56.462,28.021-83.993c5.536-13.762,11.626-27.359,18.481-40.673
			c6.86-13.307,14.459-26.358,23.354-38.787c4.453-6.207,9.232-12.257,14.492-18.015c5.257-5.753,10.985-11.23,17.389-16.135
			c6.396-4.891,13.502-9.224,21.386-12.317c7.85-3.108,16.53-4.85,25.192-4.667c8.666,0.157,17.192,2.231,24.804,5.604
			c7.645,3.362,14.438,7.905,20.508,12.967c6.073,5.075,11.455,10.687,16.361,16.553c4.908,5.871,9.334,12.015,13.434,18.303
			c8.184,12.59,15.072,25.758,21.226,39.159c6.146,13.409,11.515,27.079,16.439,40.862c9.825,27.582,17.565,55.723,24.342,84.016
			c6.743,28.31,12.21,56.862,16.982,85.497c9.452,57.293,15.741,114.999,19.89,172.813
			C2421.889,1459.37,2423.808,1517.32,2423.804,1575.264z M2423.804,1575.264c-0.021-57.944-2.381-115.896-7.403-173.607
			c-5.046-57.7-12.701-115.191-23.898-171.945c-5.584-28.375-12.177-56.537-19.85-84.354c-3.832-13.909-7.996-27.717-12.546-41.377
			c-4.54-13.662-9.44-27.186-14.812-40.484c-5.358-13.301-11.251-26.357-17.773-39.008c-6.531-12.637-13.713-24.889-21.871-36.233
			c-8.151-11.3-17.334-21.803-27.834-29.791c-5.24-3.971-10.805-7.259-16.553-9.459c-5.743-2.216-11.645-3.296-17.479-3.127
			c-5.837,0.171-11.585,1.583-17.09,4.066c-5.509,2.468-10.761,5.966-15.673,10.109c-9.838,8.327-18.303,19.032-25.748,30.498
			c-7.448,11.506-13.919,23.875-19.742,36.606c-5.813,12.746-10.984,25.875-15.731,39.197
			c-9.472,26.666-17.046,54.151-23.679,81.885c-6.591,27.756-11.988,55.853-16.684,84.083
			c-9.318,56.488-15.551,113.572-19.665,170.812c-4.088,57.25-6.002,114.688-6.011,172.133
			c0.002,57.444,1.878,114.884,5.951,172.137c4.095,57.243,10.312,114.332,19.622,170.826c4.702,28.231,10.07,56.337,16.679,84.092
			c6.627,27.738,14.194,55.23,23.678,81.898c4.752,13.322,9.901,26.466,15.729,39.21c5.827,12.734,12.303,25.105,19.757,36.617
			c7.451,11.47,15.924,22.183,25.775,30.519c4.919,4.145,10.181,7.648,15.701,10.121c5.517,2.486,11.279,3.9,17.131,4.07
			c5.849,0.168,11.764-0.918,17.518-3.139c5.758-2.207,11.33-5.5,16.574-9.477c10.51-7.998,19.695-18.51,27.849-29.816
			c8.16-11.351,15.341-23.606,21.871-36.247c6.529-12.651,12.404-25.717,17.763-39.02c5.37-13.302,10.27-26.827,14.808-40.491
			c4.551-13.661,8.697-27.474,12.533-41.383c7.676-27.818,14.253-55.985,19.836-84.36c11.186-56.758,18.832-114.25,23.871-171.951
			C2421.425,1691.16,2423.783,1633.208,2423.804,1575.264z"/>
	</g>
	
		<circle id="CENTRE_CIRCLE" fill="none" stroke="#231F20" stroke-width="3" stroke-miterlimit="10" cx="2243.786" cy="2078.594" r="150.015"/>
	<g>
		<path fill="#231F20" d="M2063.769,2581c-0.004-57.943,1.917-115.895,6.043-173.715c4.154-57.812,10.452-115.518,19.916-172.807
			c4.773-28.635,10.256-57.184,16.997-85.49c6.782-28.291,14.534-56.426,24.358-84.004c4.924-13.781,10.31-27.442,16.449-40.85
			c6.153-13.397,13.042-26.561,21.225-39.145c4.099-6.286,8.522-12.426,13.429-18.293c4.904-5.863,10.283-11.47,16.352-16.539
			c6.063-5.057,12.851-9.594,20.484-12.95c3.81-1.679,7.826-3.044,11.987-4.003c2.079-0.482,4.193-0.86,6.329-1.124
			c1.067-0.135,2.14-0.24,3.216-0.316c0.537-0.045,1.076-0.066,1.614-0.096l1.73-0.054l1.415-0.011
			c0.572,0.009,1.194,0.012,1.713,0.036c1.08,0.034,2.159,0.098,3.235,0.191c2.153,0.181,4.294,0.477,6.406,0.88
			c4.229,0.801,8.344,2.019,12.271,3.564c7.871,3.089,14.969,7.418,21.358,12.305c6.396,4.9,12.12,10.374,17.372,16.124
			c5.255,5.754,10.03,11.802,14.481,18.006c8.889,12.424,16.482,25.471,23.339,38.774c6.841,13.315,12.952,26.899,18.483,40.661
			c5.543,13.757,10.571,27.669,15.216,41.678c4.65,14.006,8.905,28.115,12.807,42.302c7.807,28.371,14.499,56.98,20.152,85.758
			c11.34,57.555,19.066,115.662,24.165,173.934c5.069,58.277,7.473,116.74,7.487,175.186c-0.008,58.443-2.372,116.908-7.426,175.189
			c-5.08,58.273-12.792,116.387-24.122,173.947c-5.66,28.779-12.323,57.396-20.147,85.768
			c-7.814,28.371-16.961,56.463-28.021,83.992c-5.537,13.764-11.626,27.361-18.481,40.674c-6.86,13.307-14.459,26.357-23.353,38.787
			c-4.455,6.207-9.234,12.256-14.493,18.014c-5.257,5.754-10.985,11.23-17.389,16.135c-6.396,4.893-13.503,9.225-21.386,12.318
			c-7.851,3.107-16.531,4.85-25.193,4.666c-8.665-0.158-17.192-2.23-24.804-5.604c-7.645-3.361-14.438-7.906-20.508-12.967
			c-6.073-5.076-11.455-10.688-16.361-16.553c-4.908-5.871-9.334-12.016-13.434-18.305c-8.184-12.59-15.072-25.758-21.226-39.158
			c-6.146-13.408-11.515-27.08-16.438-40.861c-9.826-27.582-17.565-55.723-24.343-84.018c-6.743-28.309-12.21-56.861-16.981-85.496
			c-9.453-57.293-15.742-115-19.89-172.812C2065.683,2696.895,2063.765,2638.945,2063.769,2581z M2063.769,2581
			c0.021,57.943,2.381,115.896,7.403,173.607c5.046,57.699,12.701,115.191,23.898,171.945c5.583,28.375,12.176,56.537,19.85,84.354
			c3.832,13.91,7.996,27.717,12.546,41.377c4.539,13.662,9.44,27.186,14.812,40.484c5.358,13.303,11.25,26.357,17.773,39.008
			c6.53,12.639,13.712,24.889,21.87,36.234c8.151,11.299,17.334,21.803,27.834,29.791c5.24,3.971,10.805,7.258,16.553,9.459
			c5.743,2.215,11.645,3.295,17.479,3.127c5.837-0.172,11.584-1.584,17.09-4.066c5.508-2.469,10.761-5.967,15.673-10.109
			c9.838-8.326,18.303-19.031,25.748-30.498c7.448-11.506,13.919-23.873,19.742-36.605c5.813-12.744,10.985-25.875,15.731-39.195
			c9.473-26.666,17.046-54.152,23.679-81.885c6.591-27.756,11.987-55.854,16.683-84.084c9.319-56.488,15.551-113.572,19.665-170.812
			c4.088-57.25,6.002-114.688,6.011-172.131c-0.002-57.445-1.878-114.885-5.951-172.139
			c-4.095-57.242-10.312-114.332-19.622-170.824c-4.702-28.232-10.07-56.338-16.679-84.093
			c-6.627-27.737-14.194-55.229-23.678-81.897c-4.752-13.322-9.901-26.465-15.729-39.209c-5.827-12.734-12.302-25.106-19.757-36.618
			c-7.451-11.471-15.924-22.183-25.775-30.518c-4.919-4.146-10.181-7.649-15.701-10.122c-2.758-1.241-5.578-2.217-8.439-2.904
			c-1.431-0.346-2.872-0.616-4.321-0.808c-0.725-0.098-1.451-0.177-2.18-0.235l-1-0.074l-1.302-0.05l-0.985-0.015
			c-0.366,0.005-0.732-0.002-1.1,0.013c-0.732,0.016-1.466,0.053-2.199,0.11c-1.467,0.109-2.934,0.298-4.398,0.565
			c-2.929,0.529-5.848,1.358-8.723,2.466c-5.758,2.206-11.33,5.5-16.574,9.476c-10.51,7.999-19.695,18.511-27.849,29.816
			c-8.159,11.351-15.341,23.607-21.87,36.248c-6.529,12.651-12.404,25.717-17.764,39.02c-5.369,13.3-10.27,26.827-14.807,40.49
			c-4.552,13.661-8.698,27.475-12.534,41.384c-7.676,27.818-14.253,55.984-19.835,84.359
			c-11.186,56.758-18.833,114.25-23.872,171.951C2066.147,2465.105,2063.79,2523.057,2063.769,2581z"/>
	</g>
	<g>
		<path fill="#231F20" d="M2148.251,1553.088c28.976,50.179,56.287,101.326,81.624,153.463
			c25.31,52.145,48.708,105.267,69.157,159.613c10.184,27.184,19.709,54.65,28.026,82.535c8.271,27.892,15.626,56.134,20.907,84.929
			c2.626,14.396,4.792,28.92,6.179,43.602c1.369,14.68,1.986,29.523,1.191,44.513c-0.407,7.493-1.168,15.022-2.483,22.557
			c-1.315,7.529-3.171,15.074-5.891,22.499c-2.724,7.41-6.333,14.734-11.267,21.457c-4.898,6.719-11.236,12.766-18.649,17.227
			c-7.398,4.482-15.772,7.309-24.112,8.539c-8.362,1.262-16.673,1.061-24.649,0.023c-7.989-1.045-15.683-2.924-23.106-5.277
			c-7.428-2.355-14.588-5.205-21.545-8.352c-13.909-6.314-27.01-13.818-39.6-21.91c-12.581-8.111-24.666-16.82-36.337-25.972
			c-11.68-9.143-22.99-18.676-34.016-28.485c-11.031-9.805-21.771-19.896-32.242-30.231c-20.947-20.667-41.047-42.097-60.332-64.193
			c-38.598-44.173-74.344-90.633-107.895-138.547c-33.53-47.936-64.842-97.365-94.077-147.972
			c-29.215-50.617-56.4-102.431-81.164-155.432c-24.738-53.007-47.116-107.19-66.083-162.704
			c-9.488-27.753-18.027-55.869-25.436-84.351c-7.419-28.478-13.542-57.378-17.729-86.751c-2.086-14.687-3.611-29.507-4.332-44.464
			c-0.712-14.955-0.657-30.056,0.832-45.267c0.754-7.603,1.868-15.232,3.543-22.848c1.676-7.611,3.898-15.219,6.991-22.668
			c3.095-7.434,7.082-14.74,12.362-21.36c5.245-6.616,11.891-12.465,19.485-16.638c7.583-4.197,16.004-6.665,24.282-7.548
			c8.301-0.911,16.457-0.374,24.244,0.975c7.797,1.358,15.263,3.527,22.446,6.155c7.186,2.63,14.09,5.738,20.785,9.134
			c13.383,6.812,25.933,14.771,37.962,23.3c12.027,8.54,23.511,17.694,34.667,27.168c22.3,18.974,43.074,39.475,63.089,60.589
			c19.994,21.145,39.005,43.139,57.456,65.552c36.833,44.891,71.132,91.721,103.631,139.715
			C2088.646,1453.678,2119.282,1502.905,2148.251,1553.088z M2148.251,1553.088c-28.989-50.17-60.01-99.178-93.215-146.646
			c-33.22-47.447-68.596-93.408-106.669-136.96c-19.023-21.781-38.814-42.874-59.368-63.128
			c-10.273-10.129-20.784-20.005-31.554-29.56c-10.762-9.562-21.769-18.823-33.07-27.655c-11.291-8.84-22.922-17.201-34.896-24.895
			c-11.975-7.678-24.319-14.698-37.057-20.444c-12.709-5.71-25.914-10.215-39.001-11.882c-6.523-0.82-12.987-0.884-19.064,0.084
			c-6.083,0.952-11.733,2.968-16.701,6.031c-4.969,3.067-9.241,7.164-12.767,12.066c-3.537,4.892-6.336,10.548-8.519,16.591
			c-4.356,12.13-6.334,25.634-7.049,39.286c-0.697,13.689-0.117,27.636,1.206,41.573c1.338,13.944,3.424,27.901,5.975,41.811
			c5.129,27.829,12.313,55.419,20.436,82.753c8.17,27.333,17.544,54.364,27.593,81.16c20.174,53.579,43.318,106.131,68.376,157.759
			c25.085,51.624,52.146,102.324,80.86,152.077c28.724,49.748,59.068,98.553,91.223,146.1
			c32.168,47.526,66.097,93.858,102.406,138.128c18.188,22.099,36.89,43.754,56.491,64.487
			c19.608,20.708,39.907,40.734,61.455,59.086c10.776,9.162,21.808,17.969,33.227,26.092c11.413,8.114,23.207,15.591,35.419,21.833
			c12.188,6.207,24.882,11.248,37.581,13.541c6.333,1.131,12.642,1.535,18.658,0.914c6.021-0.604,11.719-2.262,16.871-5.039
			c5.149-2.779,9.729-6.676,13.602-11.477c3.884-4.789,7.062-10.428,9.615-16.493c5.103-12.182,7.802-25.878,9.21-39.746
			c1.391-13.91,1.481-28.114,0.816-42.327c-0.671-14.221-2.116-28.474-4.127-42.674c-2-14.204-4.52-28.368-7.421-42.469
			c-2.89-14.106-6.205-28.143-9.838-42.106c-7.262-27.929-15.648-55.611-25.002-82.976c-18.692-54.747-40.816-108.36-65.303-160.85
			C2204.14,1654.646,2177.204,1603.279,2148.251,1553.088z"/>
	</g>
	<g>
		<path fill="#231F20" d="M2339.32,2604.1c-28.976-50.18-56.287-101.326-81.624-153.463
			c-25.309-52.145-48.707-105.268-69.156-159.613c-10.184-27.184-19.709-54.65-28.026-82.535
			c-8.271-27.893-15.626-56.133-20.907-84.929c-2.626-14.396-4.792-28.92-6.18-43.602c-1.369-14.679-1.985-29.523-1.191-44.513
			c0.407-7.493,1.168-15.022,2.483-22.556c1.315-7.53,3.17-15.075,5.891-22.5c2.724-7.411,6.332-14.734,11.265-21.458
			c4.898-6.718,11.236-12.767,18.649-17.228c7.399-4.482,15.772-7.309,24.112-8.54c8.362-1.26,16.673-1.061,24.649-0.023
			c7.989,1.046,15.683,2.924,23.106,5.277c7.429,2.356,14.588,5.205,21.545,8.353c13.909,6.315,27.01,13.817,39.6,21.91
			c12.581,8.11,24.666,16.819,36.337,25.972c11.68,9.143,22.99,18.676,34.017,28.485c11.031,9.805,21.771,19.896,32.241,30.231
			c20.947,20.667,41.047,42.098,60.332,64.193c38.598,44.172,74.344,90.633,107.895,138.547
			c33.529,47.936,64.842,97.365,94.076,147.971c29.216,50.617,56.4,102.432,81.164,155.434
			c24.738,53.006,47.116,107.189,66.084,162.703c9.487,27.752,18.026,55.869,25.436,84.352c7.419,28.477,13.542,57.377,17.729,86.75
			c2.086,14.688,3.611,29.508,4.331,44.465c0.712,14.955,0.657,30.057-0.831,45.266c-0.754,7.604-1.867,15.232-3.543,22.848
			c-1.677,7.611-3.898,15.221-6.991,22.668c-3.094,7.434-7.082,14.74-12.361,21.361c-5.244,6.615-11.891,12.465-19.484,16.637
			c-7.582,4.197-16.004,6.666-24.282,7.551c-8.302,0.91-16.457,0.373-24.243-0.975c-7.798-1.359-15.264-3.527-22.447-6.154
			c-7.186-2.631-14.09-5.738-20.785-9.135c-13.383-6.812-25.932-14.771-37.962-23.301c-12.026-8.539-23.511-17.693-34.667-27.168
			c-22.301-18.973-43.073-39.475-63.09-60.588c-19.993-21.146-39.005-43.141-57.455-65.553
			c-36.832-44.891-71.132-91.721-103.631-139.715C2398.926,2703.51,2368.289,2654.283,2339.32,2604.1z M2339.32,2604.1
			c28.99,50.17,60.01,99.178,93.215,146.646c33.221,47.447,68.596,93.408,106.67,136.961c19.022,21.781,38.813,42.873,59.367,63.127
			c10.273,10.131,20.783,20.006,31.553,29.561c10.763,9.562,21.77,18.824,33.07,27.654c11.291,8.842,22.922,17.201,34.896,24.896
			c11.974,7.678,24.318,14.697,37.057,20.443c12.709,5.709,25.914,10.215,39.001,11.881c6.522,0.82,12.986,0.885,19.063-0.084
			c6.082-0.953,11.732-2.969,16.701-6.033c4.969-3.066,9.24-7.162,12.767-12.066c3.536-4.891,6.336-10.547,8.519-16.59
			c4.356-12.131,6.334-25.635,7.049-39.287c0.697-13.689,0.117-27.635-1.205-41.572c-1.339-13.945-3.425-27.9-5.975-41.811
			c-5.13-27.83-12.314-55.42-20.437-82.754c-8.171-27.332-17.545-54.363-27.594-81.16c-20.174-53.578-43.318-106.131-68.376-157.76
			c-25.085-51.623-52.146-102.324-80.86-152.076c-28.724-49.748-59.068-98.553-91.223-146.1
			c-32.167-47.527-66.097-93.859-102.405-138.128c-18.188-22.098-36.891-43.754-56.491-64.486
			c-19.608-20.709-39.907-40.734-61.455-59.087c-10.776-9.162-21.807-17.969-33.227-26.092
			c-11.413-8.114-23.207-15.591-35.419-21.833c-12.188-6.208-24.881-11.249-37.581-13.542c-6.333-1.131-12.641-1.534-18.658-0.915
			c-6.021,0.605-11.719,2.262-16.87,5.04c-5.149,2.779-9.729,6.676-13.602,11.478c-3.884,4.789-7.062,10.428-9.614,16.494
			c-5.103,12.182-7.802,25.878-9.209,39.746c-1.392,13.91-1.482,28.114-0.816,42.327c0.671,14.221,2.116,28.474,4.127,42.674
			c2,14.203,4.52,28.367,7.422,42.468c2.889,14.107,6.204,28.143,9.836,42.107c7.263,27.928,15.649,55.609,25.003,82.975
			c18.692,54.748,40.815,108.361,65.302,160.85C2283.433,2502.541,2310.367,2553.908,2339.32,2604.1z"/>
	</g>
	<g>
		<path fill="#231F20" d="M1898.299,1671.26c50.184,28.969,99.409,59.607,147.42,92.091c47.991,32.504,94.816,66.81,139.698,103.65
			c22.412,18.451,44.395,37.474,65.539,57.465c21.109,20.019,41.6,40.8,60.571,63.097c9.473,11.155,18.61,22.649,27.152,34.67
			c8.525,12.028,16.48,24.575,23.287,37.954c3.395,6.693,6.5,13.594,9.128,20.776c2.625,7.179,4.792,14.64,6.147,22.431
			c1.348,7.779,1.883,15.926,0.973,24.216c-0.883,8.267-3.348,16.674-7.537,24.243c-4.168,7.581-10.006,14.215-16.613,19.451
			c-6.611,5.271-13.908,9.254-21.335,12.346c-7.441,3.088-15.044,5.309-22.649,6.982c-7.611,1.674-15.236,2.785-22.835,3.539
			c-15.203,1.484-30.3,1.537-45.249,0.824c-14.951-0.732-29.771-2.232-44.455-4.324c-14.686-2.078-29.247-4.68-43.701-7.66
			c-14.456-2.977-28.802-6.346-43.038-10.061c-28.474-7.424-56.597-15.933-84.346-25.427
			c-55.513-18.956-109.7-41.318-162.713-66.039c-53.005-24.749-104.837-51.899-155.458-81.108
			c-50.61-29.229-100.06-60.508-148.006-94.026c-47.927-33.536-94.398-69.271-138.582-107.864
			c-22.093-19.291-43.546-39.371-64.204-60.333c-20.664-20.953-40.417-42.92-58.729-66.264
			c-9.15-11.676-17.881-23.748-25.983-36.342c-8.094-12.595-15.597-25.701-21.913-39.618c-3.148-6.961-5.999-14.125-8.355-21.559
			c-2.354-7.429-4.233-15.129-5.279-23.126c-1.037-7.985-1.237-16.306,0.026-24.68c1.233-8.352,4.065-16.74,8.555-24.151
			c4.469-7.426,10.528-13.773,17.255-18.678c6.733-4.939,14.065-8.552,21.483-11.277c7.432-2.722,14.982-4.577,22.517-5.893
			c7.539-1.315,15.072-2.075,22.567-2.481c14.996-0.792,29.843-0.174,44.526,1.197c14.685,1.382,29.208,3.568,43.607,6.194
			c28.799,5.281,57.04,12.649,84.932,20.927c27.888,8.315,55.349,17.857,82.534,28.042c54.344,20.46,107.463,43.867,159.605,69.182
			C1796.974,1614.971,1848.119,1642.285,1898.299,1671.26z M1898.299,1671.26c-50.191-28.954-101.559-55.886-154.05-80.392
			c-52.492-24.48-106.109-46.596-160.858-65.276c-27.365-9.352-55.051-17.724-82.978-24.987
			c-13.962-3.636-28.002-6.934-42.106-9.823c-14.102-2.899-28.264-5.417-42.467-7.415c-14.198-2.011-28.452-3.436-42.668-4.112
			c-14.209-0.663-28.41-0.57-42.314,0.824c-13.862,1.409-27.55,4.11-39.717,9.209c-6.059,2.552-11.689,5.728-16.467,9.605
			c-4.792,3.866-8.678,8.437-11.448,13.574c-2.77,5.141-4.421,10.824-5.023,16.833c-0.617,6.005-0.213,12.303,0.918,18.628
			c2.292,12.684,7.331,25.367,13.538,37.547c6.241,12.204,13.716,23.992,21.83,35.4c8.131,11.407,16.917,22.451,26.08,33.222
			c18.357,21.536,38.373,41.838,59.075,61.449c20.742,19.586,42.376,38.308,64.477,56.49
			c44.26,36.314,90.581,70.253,138.095,102.436c47.536,32.165,96.321,62.542,146.066,91.271
			c49.75,28.721,100.431,55.816,152.05,80.916c51.622,25.076,104.171,48.236,157.75,68.419c26.8,10.044,53.824,19.447,81.166,27.602
			c27.335,8.131,54.929,15.323,82.765,20.442c13.914,2.547,27.871,4.658,41.821,5.984c13.941,1.32,27.894,1.898,41.591,1.197
			c13.659-0.717,27.172-2.699,39.316-7.062c6.051-2.187,11.715-4.992,16.616-8.536c4.911-3.535,9.018-7.818,12.091-12.801
			c3.069-4.981,5.088-10.646,6.04-16.74c0.97-6.089,0.902-12.561,0.081-19.092c-1.672-13.101-6.183-26.311-11.897-39.025
			c-5.75-12.742-12.773-25.089-20.455-37.064c-7.692-11.979-16.07-23.601-24.912-34.893c-8.834-11.301-18.098-22.308-27.661-33.069
			c-9.556-10.772-19.444-21.27-29.572-31.546c-20.254-20.556-41.357-40.335-63.141-59.358
			c-43.562-38.066-89.528-73.434-136.979-106.649C1997.479,1731.268,1948.469,1700.25,1898.299,1671.26z"/>
	</g>
	<g>
		<path fill="#231F20" d="M2589.275,2485.926c-50.184-28.969-99.409-59.607-147.42-92.09
			c-47.991-32.504-94.816-66.811-139.699-103.65c-22.41-18.451-44.393-37.475-65.538-57.465
			c-21.109-20.02-41.6-40.801-60.571-63.098c-9.473-11.153-18.61-22.648-27.152-34.669c-8.525-12.028-16.48-24.575-23.288-37.954
			c-3.394-6.692-6.5-13.594-9.127-20.776c-2.625-7.179-4.792-14.64-6.148-22.43c-1.347-7.78-1.883-15.927-0.973-24.216
			c0.883-8.267,3.348-16.674,7.538-24.244c4.167-7.581,10.005-14.216,16.613-19.452c6.611-5.272,13.908-9.254,21.335-12.345
			c7.441-3.088,15.044-5.309,22.649-6.982c7.611-1.673,15.236-2.786,22.835-3.538c15.203-1.486,30.3-1.539,45.249-0.825
			c14.951,0.733,29.771,2.233,44.455,4.324c14.686,2.079,29.247,4.68,43.701,7.662c14.456,2.976,28.802,6.345,43.038,10.06
			c28.474,7.424,56.597,15.934,84.346,25.427c55.513,18.956,109.699,41.318,162.713,66.039
			c53.006,24.75,104.838,51.9,155.459,81.109c50.609,29.228,100.059,60.507,148.006,94.026
			c47.927,33.535,94.398,69.271,138.581,107.863c22.094,19.291,43.546,39.371,64.203,60.332
			c20.664,20.953,40.417,42.92,58.729,66.264c9.15,11.676,17.881,23.748,25.983,36.342c8.094,12.596,15.597,25.701,21.913,39.619
			c3.148,6.961,5.998,14.125,8.355,21.557c2.354,7.43,4.233,15.131,5.279,23.127c1.037,7.986,1.237,16.307-0.025,24.68
			c-1.234,8.352-4.065,16.74-8.555,24.15c-4.469,7.428-10.528,13.775-17.256,18.68c-6.733,4.939-14.065,8.551-21.482,11.277
			c-7.433,2.721-14.982,4.576-22.518,5.893c-7.538,1.314-15.071,2.076-22.566,2.48c-14.996,0.793-29.844,0.176-44.526-1.197
			c-14.685-1.381-29.208-3.566-43.606-6.193c-28.8-5.281-57.041-12.65-84.932-20.928c-27.889-8.314-55.35-17.857-82.534-28.041
			c-54.343-20.461-107.462-43.869-159.604-69.184C2690.6,2542.217,2639.455,2514.902,2589.275,2485.926z M2589.275,2485.926
			c50.19,28.955,101.559,55.887,154.05,80.393c52.492,24.48,106.108,46.598,160.857,65.277
			c27.365,9.352,55.051,17.725,82.978,24.988c13.962,3.635,28.002,6.934,42.106,9.822c14.102,2.9,28.265,5.418,42.467,7.416
			c14.198,2.01,28.452,3.436,42.669,4.111c14.209,0.662,28.41,0.568,42.313-0.824c13.862-1.408,27.55-4.109,39.717-9.209
			c6.06-2.553,11.688-5.729,16.468-9.605c4.791-3.865,8.678-8.438,11.447-13.574c2.771-5.141,4.422-10.824,5.023-16.832
			c0.617-6.006,0.214-12.305-0.918-18.629c-2.292-12.684-7.331-25.367-13.538-37.547c-6.24-12.203-13.716-23.992-21.83-35.4
			c-8.132-11.408-16.916-22.451-26.08-33.223c-18.356-21.535-38.373-41.838-59.074-61.449
			c-20.742-19.586-42.376-38.307-64.477-56.49c-44.261-36.312-90.581-70.252-138.095-102.436
			c-47.537-32.164-96.321-62.541-146.066-91.271c-49.749-28.721-100.431-55.815-152.051-80.914
			c-51.621-25.075-104.17-48.236-157.75-68.42c-26.8-10.044-53.824-19.447-81.166-27.602c-27.335-8.13-54.928-15.323-82.764-20.444
			c-13.914-2.546-27.871-4.658-41.821-5.983c-13.941-1.32-27.894-1.898-41.591-1.199c-13.659,0.718-27.172,2.699-39.317,7.063
			c-6.05,2.187-11.714,4.992-16.615,8.537c-4.912,3.534-9.018,7.817-12.091,12.8c-3.069,4.981-5.088,10.646-6.04,16.74
			c-0.969,6.089-0.902,12.562-0.08,19.092c1.672,13.101,6.182,26.312,11.896,39.025c5.75,12.742,12.774,25.089,20.456,37.064
			c7.692,11.979,16.07,23.601,24.911,34.892c8.834,11.301,18.099,22.309,27.662,33.07c9.555,10.771,19.445,21.27,29.572,31.545
			c20.254,20.557,41.358,40.336,63.141,59.359c43.562,38.064,89.527,73.434,136.979,106.648
			C2490.096,2425.918,2539.105,2456.936,2589.275,2485.926z"/>
	</g>
	<g>
		<path fill="#231F20" d="M1740.919,1898.577c57.944-0.004,115.895,1.917,173.715,6.043c57.813,4.154,115.519,10.452,172.808,19.915
			c28.634,4.773,57.183,10.256,85.491,16.997c28.291,6.782,56.426,14.534,84.004,24.358c13.781,4.924,27.442,10.31,40.851,16.449
			c13.396,6.153,26.561,13.042,39.145,21.225c6.285,4.099,12.426,8.522,18.293,13.429c5.862,4.905,11.469,10.283,16.539,16.352
			c5.057,6.064,9.594,12.851,12.95,20.485c1.679,3.809,3.044,7.826,4.003,11.987c0.482,2.079,0.859,4.194,1.123,6.329
			c0.135,1.067,0.241,2.14,0.316,3.215c0.046,0.537,0.066,1.076,0.097,1.615l0.054,1.73l0.012,1.414
			c-0.009,0.573-0.012,1.195-0.035,1.714c-0.034,1.08-0.099,2.159-0.192,3.235c-0.181,2.152-0.477,4.293-0.88,6.406
			c-0.802,4.228-2.02,8.344-3.564,12.271c-3.09,7.871-7.418,14.969-12.305,21.358c-4.9,6.396-10.374,12.119-16.124,17.372
			c-5.754,5.254-11.802,10.03-18.006,14.481c-12.424,8.888-25.471,16.481-38.774,23.339c-13.314,6.84-26.899,12.951-40.66,18.482
			c-13.758,5.543-27.67,10.572-41.678,15.217c-14.007,4.65-28.116,8.904-42.303,12.807c-28.37,7.807-56.98,14.498-85.759,20.152
			c-57.554,11.34-115.662,19.066-173.933,24.164c-58.279,5.07-116.742,7.473-175.186,7.488
			c-58.443-0.008-116.908-2.373-175.19-7.428c-58.274-5.078-116.388-12.791-173.947-24.121
			c-28.779-5.66-57.397-12.324-85.768-20.148c-28.372-7.814-56.462-16.961-83.993-28.021c-13.762-5.537-27.36-11.625-40.673-18.48
			c-13.307-6.861-26.358-14.459-38.787-23.353c-6.207-4.455-12.257-9.234-18.015-14.493c-5.753-5.257-11.231-10.985-16.135-17.389
			c-4.891-6.396-9.224-13.503-12.317-21.386c-3.107-7.851-4.849-16.53-4.666-25.193c0.157-8.665,2.23-17.192,5.604-24.803
			c3.361-7.645,7.905-14.439,12.966-20.507c5.075-6.074,10.687-11.455,16.553-16.362c5.871-4.908,12.015-9.333,18.304-13.433
			c12.59-8.185,25.758-15.072,39.159-21.226c13.409-6.146,27.079-11.515,40.862-16.439c27.582-9.826,55.723-17.565,84.016-24.342
			c28.31-6.743,56.862-12.21,85.498-16.982c57.293-9.453,114.999-15.741,172.813-19.889
			C1625.024,1900.491,1682.975,1898.573,1740.919,1898.577z M1740.919,1898.577c-57.943,0.021-115.896,2.381-173.607,7.403
			c-57.7,5.045-115.191,12.701-171.945,23.898c-28.375,5.583-56.537,12.177-84.354,19.85c-13.909,3.832-27.717,7.996-41.377,12.546
			c-13.662,4.54-27.186,9.44-40.484,14.812c-13.301,5.358-26.357,11.25-39.008,17.773c-12.637,6.531-24.889,13.711-36.233,21.87
			c-11.3,8.151-21.804,17.334-29.791,27.834c-3.972,5.239-7.26,10.805-9.459,16.552c-2.217,5.744-3.297,11.645-3.128,17.479
			c0.172,5.837,1.583,11.584,4.066,17.09c2.468,5.508,5.966,10.761,10.108,15.673c8.327,9.838,19.033,18.303,30.498,25.748
			c11.507,7.448,23.875,13.919,36.606,19.742c12.746,5.812,25.875,10.984,39.197,15.73c26.666,9.473,54.151,17.047,81.885,23.68
			c27.756,6.59,55.853,11.986,84.083,16.684c56.488,9.318,113.572,15.551,170.812,19.664c57.25,4.088,114.688,6.002,172.133,6.012
			c57.445-0.002,114.884-1.879,172.138-5.951c57.243-4.096,114.332-10.312,170.826-19.623c28.231-4.701,56.337-10.07,84.093-16.678
			c27.737-6.627,55.229-14.195,81.897-23.68c13.322-4.75,26.465-9.9,39.209-15.728c12.734-5.827,25.106-12.303,36.618-19.758
			c11.471-7.451,22.183-15.923,30.519-25.775c4.146-4.918,7.648-10.18,10.121-15.701c1.242-2.758,2.218-5.578,2.904-8.439
			c0.346-1.431,0.617-2.872,0.809-4.321c0.099-0.725,0.177-1.451,0.234-2.18l0.074-1l0.051-1.302l0.015-0.985
			c-0.005-0.366,0.002-0.732-0.013-1.099c-0.017-0.733-0.053-1.466-0.11-2.199c-0.108-1.467-0.298-2.935-0.565-4.398
			c-0.528-2.929-1.357-5.848-2.466-8.724c-2.205-5.758-5.499-11.33-9.476-16.574c-7.999-10.51-18.511-19.695-29.816-27.849
			c-11.351-8.16-23.607-15.341-36.248-21.871c-12.651-6.528-25.717-12.404-39.02-17.762c-13.302-5.37-26.827-10.27-40.491-14.808
			c-13.66-4.551-27.475-8.698-41.383-12.534c-27.818-7.675-55.985-14.252-84.361-19.834
			c-56.758-11.186-114.25-18.833-171.951-23.872C1856.815,1900.955,1798.862,1898.598,1740.919,1898.577z"/>
	</g>
	<g>
		<path fill="#231F20" d="M2746.655,2258.609c-57.944,0.004-115.895-1.916-173.715-6.043
			c-57.813-4.152-115.518-10.451-172.808-19.914c-28.634-4.773-57.183-10.256-85.49-16.996
			c-28.291-6.783-56.426-14.535-84.005-24.359c-13.78-4.924-27.441-10.311-40.85-16.449c-13.396-6.154-26.561-13.043-39.145-21.225
			c-6.285-4.099-12.426-8.522-18.293-13.429c-5.863-4.904-11.469-10.282-16.539-16.351c-5.057-6.064-9.594-12.852-12.95-20.485
			c-1.679-3.809-3.044-7.826-4.003-11.987c-0.482-2.079-0.86-4.193-1.124-6.329c-0.134-1.067-0.241-2.14-0.316-3.215
			c-0.045-0.538-0.066-1.077-0.096-1.615l-0.054-1.73l-0.011-1.414c0.009-0.573,0.012-1.195,0.035-1.714
			c0.034-1.08,0.099-2.159,0.192-3.235c0.181-2.152,0.477-4.293,0.88-6.406c0.801-4.228,2.019-8.344,3.564-12.271
			c3.089-7.872,7.418-14.969,12.305-21.358c4.9-6.396,10.374-12.119,16.123-17.372c5.755-5.255,11.802-10.03,18.007-14.481
			c12.423-8.888,25.471-16.482,38.774-23.339c13.314-6.84,26.898-12.952,40.66-18.483c13.758-5.543,27.67-10.571,41.678-15.216
			c14.007-4.651,28.116-8.905,42.302-12.806c28.371-7.807,56.981-14.499,85.76-20.152c57.554-11.34,115.662-19.066,173.933-24.165
			c58.286-5.069,116.724-7.472,175.203-7.487c58.407,0.007,116.897,2.372,175.172,7.426c58.274,5.08,116.388,12.792,173.947,24.122
			c28.778,5.66,57.397,12.323,85.768,20.148c28.372,7.813,56.463,16.961,83.993,28.021c13.763,5.537,27.359,11.626,40.674,18.481
			c13.307,6.86,26.357,14.459,38.786,23.353c6.207,4.455,12.257,9.234,18.015,14.493c5.753,5.257,11.23,10.986,16.135,17.389
			c4.891,6.396,9.225,13.503,12.317,21.386c3.107,7.851,4.85,16.53,4.666,25.193c-0.157,8.665-2.23,17.192-5.604,24.804
			c-3.361,7.645-7.904,14.438-12.966,20.507c-5.075,6.074-10.687,11.455-16.554,16.362c-5.871,4.908-12.015,9.333-18.303,13.433
			c-12.591,8.184-25.758,15.072-39.16,21.227c-13.408,6.145-27.078,11.514-40.861,16.438c-27.581,9.826-55.723,17.566-84.017,24.342
			c-28.309,6.744-56.862,12.211-85.497,16.982c-57.293,9.453-114.999,15.74-172.812,19.889
			C2862.55,2256.695,2804.6,2258.613,2746.655,2258.609z M2746.655,2258.609c57.943-0.02,115.896-2.381,173.606-7.402
			c57.701-5.045,115.191-12.701,171.946-23.896c28.375-5.584,56.537-12.178,84.354-19.85c13.909-3.832,27.717-7.996,41.376-12.547
			c13.662-4.539,27.187-9.439,40.485-14.811c13.301-5.359,26.357-11.252,39.008-17.773c12.637-6.53,24.889-13.712,36.232-21.87
			c11.301-8.151,21.804-17.335,29.791-27.835c3.972-5.239,7.26-10.804,9.459-16.552c2.217-5.744,3.297-11.645,3.128-17.479
			c-0.172-5.837-1.583-11.584-4.066-17.089c-2.468-5.509-5.966-10.761-10.108-15.673c-8.327-9.838-19.032-18.303-30.498-25.748
			c-11.506-7.448-23.874-13.919-36.605-19.742c-12.746-5.813-25.875-10.985-39.197-15.731c-26.665-9.472-54.15-17.046-81.884-23.679
			c-27.757-6.591-55.853-11.988-84.084-16.684c-56.487-9.318-113.571-15.551-170.812-19.665
			c-57.258-4.087-114.67-6.002-172.15-6.011c-57.408,0.002-114.873,1.878-172.119,5.951
			c-57.243,4.095-114.332,10.312-170.825,19.622c-28.231,4.702-56.337,10.07-84.093,16.679
			c-27.738,6.626-55.23,14.194-81.898,23.678c-13.322,4.751-26.465,9.901-39.209,15.729c-12.734,5.828-25.106,12.303-36.618,19.757
			c-11.471,7.451-22.183,15.923-30.518,25.775c-4.146,4.919-7.649,10.181-10.121,15.701c-1.242,2.758-2.218,5.578-2.905,8.439
			c-0.346,1.431-0.617,2.872-0.808,4.321c-0.099,0.725-0.177,1.451-0.235,2.18l-0.074,1l-0.05,1.301l-0.015,0.986
			c0.005,0.366-0.002,0.732,0.013,1.099c0.016,0.732,0.053,1.466,0.11,2.199c0.109,1.467,0.298,2.935,0.565,4.398
			c0.529,2.929,1.358,5.848,2.466,8.724c2.205,5.758,5.499,11.329,9.476,16.573c7.999,10.51,18.511,19.695,29.816,27.849
			c11.351,8.16,23.607,15.341,36.248,21.871c12.65,6.529,25.717,12.404,39.02,17.762c13.302,5.371,26.827,10.27,40.491,14.809
			c13.66,4.551,27.474,8.697,41.383,12.533c27.818,7.676,55.984,14.254,84.36,19.836c56.758,11.186,114.25,18.832,171.951,23.871
			C2630.76,2256.232,2688.712,2258.59,2746.655,2258.609z"/>
	</g>
	<g>
		<path fill="#231F20" d="M1718.281,2174.127c50.179-28.976,101.326-56.286,153.463-81.624
			c52.145-25.309,105.268-48.707,159.613-69.157c27.185-10.183,54.649-19.709,82.535-28.026
			c27.892-8.271,56.134-15.626,84.929-20.907c14.397-2.626,28.921-4.793,43.602-6.18c14.681-1.369,29.523-1.985,44.514-1.191
			c7.493,0.407,15.022,1.168,22.556,2.483c7.53,1.316,15.075,3.171,22.5,5.891c7.41,2.724,14.733,6.333,21.457,11.266
			c3.358,2.459,6.55,5.256,9.461,8.38c1.457,1.559,2.841,3.201,4.137,4.919c0.65,0.857,1.278,1.733,1.883,2.626
			c0.308,0.443,0.595,0.899,0.891,1.351l0.912,1.471l0.717,1.22c0.278,0.501,0.587,1.041,0.826,1.502
			c0.51,0.952,0.994,1.919,1.451,2.897c0.92,1.955,1.733,3.957,2.44,5.988c1.42,4.062,2.423,8.235,3.048,12.409
			c1.26,8.361,1.061,16.672,0.023,24.648c-1.046,7.989-2.925,15.683-5.277,23.106c-2.356,7.428-5.206,14.587-8.354,21.545
			c-6.314,13.909-13.817,27.009-21.91,39.6c-8.11,12.581-16.818,24.666-25.971,36.336c-9.144,11.68-18.677,22.99-28.486,34.016
			c-9.805,11.031-19.896,21.771-30.231,32.242c-20.666,20.947-42.097,41.047-64.193,60.332
			c-44.173,38.598-90.632,74.344-138.547,107.895c-47.943,33.533-97.35,64.834-147.987,94.086
			c-50.586,29.197-102.423,56.395-155.417,81.154c-53.006,24.738-107.19,47.117-162.704,66.084
			c-27.753,9.488-55.869,18.027-84.351,25.436c-28.478,7.418-57.378,13.543-86.751,17.729c-14.687,2.088-29.507,3.613-44.464,4.332
			c-14.955,0.713-30.057,0.658-45.267-0.83c-7.603-0.754-15.232-1.869-22.848-3.545c-7.611-1.676-15.219-3.898-22.668-6.99
			c-7.434-3.094-14.74-7.082-21.36-12.363c-3.307-2.631-6.423-5.592-9.235-8.859c-1.408-1.629-2.737-3.338-3.972-5.115
			c-0.62-0.887-1.216-1.791-1.786-2.711c-0.292-0.457-0.562-0.926-0.84-1.389l-0.859-1.508l-0.662-1.252
			c-0.261-0.51-0.55-1.061-0.77-1.531c-0.473-0.971-0.918-1.955-1.335-2.947c-0.841-1.984-1.572-4.008-2.195-6.053
			c-1.251-4.09-2.079-8.258-2.529-12.402c-0.911-8.301-0.373-16.457,0.976-24.242c1.358-7.799,3.527-15.264,6.155-22.447
			c2.63-7.186,5.738-14.09,9.135-20.785c6.812-13.383,14.771-25.932,23.3-37.961c8.54-12.027,17.694-23.512,27.168-34.668
			c18.973-22.301,39.475-43.074,60.589-63.09c21.145-19.994,43.139-39.004,65.552-57.455
			c44.891-36.832,91.721-71.133,139.716-103.631C1618.871,2233.732,1668.098,2203.096,1718.281,2174.127z M1718.281,2174.127
			c-50.17,28.99-99.179,60.01-146.646,93.215c-47.447,33.221-93.408,68.596-136.96,106.67
			c-21.782,19.023-42.874,38.814-63.128,59.367c-10.13,10.273-20.005,20.783-29.56,31.553c-9.562,10.764-18.824,21.77-27.655,33.07
			c-8.84,11.291-17.201,22.922-24.895,34.896c-7.678,11.975-14.698,24.318-20.444,37.057c-5.71,12.709-10.215,25.914-11.883,39.002
			c-0.819,6.523-0.884,12.986,0.084,19.062c0.478,3.039,1.219,5.975,2.224,8.77c0.5,1.398,1.069,2.76,1.707,4.082
			c0.316,0.662,0.65,1.314,1.002,1.955c0.18,0.342,0.332,0.584,0.492,0.873l0.662,1.121c-0.014-0.043,0.165,0.254,0.237,0.363
			l0.295,0.461c0.205,0.303,0.398,0.611,0.611,0.906c0.413,0.602,0.844,1.189,1.291,1.766c0.889,1.156,1.841,2.268,2.854,3.33
			c2.021,2.129,4.272,4.078,6.722,5.842c4.892,3.537,10.548,6.336,16.591,8.52c12.131,4.357,25.634,6.334,39.286,7.049
			c13.689,0.697,27.636,0.117,41.573-1.205c13.944-1.338,27.901-3.424,41.811-5.975c27.83-5.131,55.419-12.314,82.754-20.436
			c27.333-8.172,54.364-17.545,81.16-27.594c53.579-20.174,106.131-43.318,157.76-68.377
			c51.631-25.088,102.308-52.137,152.092-80.869c49.717-28.707,98.545-59.062,146.085-91.213
			c47.526-32.168,93.858-66.098,138.128-102.406c22.099-18.188,43.755-36.891,64.487-56.49
			c20.708-19.609,40.733-39.908,59.086-61.455c9.162-10.776,17.97-21.808,26.092-33.227c8.114-11.414,15.591-23.208,21.833-35.419
			c6.208-12.188,11.25-24.882,13.542-37.582c1.132-6.333,1.534-12.641,0.915-18.659c-0.304-3.009-0.868-5.939-1.704-8.761
			c-0.416-1.412-0.902-2.796-1.461-4.146c-0.276-0.677-0.572-1.346-0.886-2.005l-0.437-0.903l-0.607-1.152l-0.479-0.861
			c-0.188-0.314-0.364-0.636-0.561-0.945c-0.381-0.626-0.779-1.244-1.195-1.85c-0.828-1.216-1.725-2.392-2.688-3.526
			c-1.923-2.272-4.1-4.386-6.497-6.322c-4.789-3.884-10.428-7.062-16.494-9.616c-12.182-5.103-25.877-7.802-39.745-9.209
			c-13.91-1.391-28.114-1.482-42.327-0.817c-14.221,0.671-28.474,2.116-42.674,4.127c-14.204,2-28.367,4.52-42.47,7.422
			c-14.105,2.889-28.143,6.205-42.105,9.837c-27.929,7.262-55.611,15.649-82.976,25.003c-54.747,18.691-108.36,40.816-160.85,65.302
			C1819.839,2118.239,1768.472,2145.174,1718.281,2174.127z"/>
	</g>
	<g>
		<path fill="#231F20" d="M2769.291,1983.058c-50.18,28.976-101.326,56.287-153.463,81.624
			c-52.145,25.309-105.268,48.708-159.613,69.157c-27.185,10.183-54.649,19.709-82.535,28.024
			c-27.892,8.271-56.134,15.627-84.93,20.908c-14.396,2.625-28.92,4.791-43.601,6.18c-14.68,1.369-29.523,1.984-44.514,1.191
			c-7.492-0.408-15.021-1.168-22.556-2.484c-7.53-1.316-15.074-3.17-22.499-5.891c-7.411-2.723-14.734-6.332-21.458-11.266
			c-3.358-2.459-6.55-5.256-9.46-8.379c-1.457-1.56-2.842-3.202-4.138-4.919c-0.65-0.857-1.278-1.733-1.882-2.627
			c-0.308-0.443-0.595-0.899-0.891-1.351l-0.911-1.471l-0.717-1.22c-0.279-0.501-0.587-1.041-0.826-1.502
			c-0.51-0.952-0.994-1.919-1.452-2.897c-0.92-1.955-1.733-3.957-2.441-5.988c-1.42-4.062-2.423-8.235-3.048-12.409
			c-1.26-8.361-1.06-16.672-0.023-24.648c1.046-7.989,2.925-15.684,5.278-23.107c2.356-7.427,5.206-14.587,8.353-21.544
			c6.315-13.909,13.817-27.009,21.91-39.599c8.111-12.582,16.819-24.667,25.972-36.337c9.143-11.679,18.677-22.989,28.486-34.016
			c9.805-11.031,19.896-21.77,30.23-32.242c20.667-20.946,42.098-41.047,64.194-60.332c44.173-38.597,90.633-74.343,138.547-107.894
			c47.943-33.533,97.351-64.833,147.987-94.085c50.587-29.197,102.423-56.395,155.417-81.154
			c53.006-24.738,107.189-47.116,162.703-66.083c27.753-9.488,55.869-18.027,84.352-25.436c28.477-7.419,57.378-13.542,86.75-17.729
			c14.688-2.086,29.508-3.612,44.465-4.332c14.954-0.712,30.057-0.657,45.267,0.831c7.603,0.754,15.231,1.868,22.848,3.543
			c7.61,1.676,15.219,3.899,22.668,6.992c7.434,3.094,14.739,7.082,21.36,12.362c6.615,5.245,12.464,11.891,16.637,19.485
			c4.196,7.583,6.664,16.004,7.548,24.282c0.911,8.301,0.373,16.457-0.976,24.243c-1.358,7.797-3.527,15.264-6.154,22.446
			c-2.631,7.186-5.738,14.09-9.135,20.785c-6.812,13.383-14.771,25.932-23.3,37.962c-8.54,12.026-17.694,23.511-27.168,34.667
			c-18.974,22.3-39.475,43.073-60.589,63.089c-21.146,19.994-43.14,39.005-65.553,57.455
			c-44.891,36.833-91.721,71.131-139.716,103.631C2868.701,1923.453,2819.475,1954.089,2769.291,1983.058z M2769.291,1983.058
			c50.17-28.99,99.178-60.01,146.646-93.215c47.447-33.219,93.408-68.595,136.961-106.668
			c21.781-19.022,42.874-38.813,63.128-59.367c10.13-10.273,20.005-20.783,29.56-31.553c9.562-10.762,18.824-21.769,27.655-33.07
			c8.84-11.291,17.201-22.922,24.896-34.896c7.678-11.974,14.698-24.319,20.443-37.057c5.71-12.709,10.215-25.914,11.883-39.001
			c0.819-6.523,0.885-12.987-0.084-19.064c-0.953-6.083-2.968-11.733-6.031-16.701c-3.067-4.969-7.164-9.241-12.066-12.767
			c-4.892-3.537-10.547-6.336-16.591-8.52c-12.13-4.356-25.634-6.334-39.285-7.049c-13.689-0.697-27.636-0.117-41.573,1.206
			c-13.944,1.338-27.9,3.424-41.811,5.975c-27.83,5.129-55.42,12.313-82.754,20.436c-27.333,8.17-54.363,17.545-81.16,27.594
			c-53.578,20.173-106.131,43.318-157.76,68.375c-51.631,25.089-102.308,52.137-152.092,80.87
			c-49.717,28.706-98.545,59.063-146.084,91.213c-47.526,32.168-93.858,66.097-138.129,102.406
			c-22.098,18.188-43.754,36.89-64.486,56.491c-20.708,19.608-40.733,39.907-59.087,61.455
			c-9.161,10.776-17.969,21.807-26.092,33.226c-8.114,11.414-15.591,23.208-21.833,35.419
			c-6.208,12.188-11.249,24.881-13.542,37.581c-1.132,6.333-1.534,12.642-0.915,18.658c0.304,3.01,0.868,5.94,1.704,8.762
			c0.416,1.411,0.902,2.795,1.461,4.146c0.277,0.678,0.572,1.346,0.887,2.006l0.436,0.903l0.607,1.151l0.48,0.861
			c0.188,0.314,0.364,0.637,0.561,0.945c0.38,0.627,0.778,1.244,1.194,1.85c0.828,1.217,1.726,2.393,2.688,3.527
			c1.923,2.271,4.1,4.385,6.498,6.321c4.788,3.884,10.427,7.062,16.493,9.615c12.182,5.102,25.878,7.801,39.745,9.209
			c13.91,1.391,28.115,1.482,42.327,0.816c14.221-0.672,28.475-2.117,42.674-4.127c14.204-2,28.367-4.52,42.47-7.422
			c14.106-2.888,28.142-6.204,42.105-9.836c27.929-7.263,55.61-15.649,82.976-25.003c54.747-18.691,108.36-40.815,160.851-65.301
			C2667.733,2038.946,2719.1,2012.012,2769.291,1983.058z"/>
	</g>
	<g>
		<path fill="#231F20" d="M1836.453,2424.701c28.969-50.184,59.607-99.408,92.09-147.42c32.504-47.99,66.811-94.816,103.651-139.698
			c18.451-22.411,37.474-44.394,57.465-65.539c20.02-21.109,40.801-41.599,63.098-60.57c11.154-9.473,22.649-18.61,34.67-27.152
			c12.028-8.525,24.576-16.48,37.955-23.288c6.691-3.394,13.594-6.5,20.775-9.127c7.179-2.625,14.64-4.791,22.431-6.147
			c7.779-1.347,15.926-1.882,24.216-0.972c4.138,0.451,8.3,1.277,12.382,2.527c2.042,0.622,4.062,1.352,6.043,2.191
			c0.992,0.417,1.974,0.862,2.943,1.333c0.488,0.229,0.965,0.481,1.447,0.724l1.524,0.818l1.231,0.698
			c0.492,0.294,1.028,0.607,1.466,0.887c0.919,0.569,1.821,1.165,2.706,1.784c1.773,1.233,3.479,2.56,5.107,3.966
			c3.262,2.808,6.217,5.92,8.844,9.223c5.272,6.611,9.254,13.909,12.345,21.335c3.089,7.442,5.308,15.044,6.982,22.65
			c1.673,7.611,2.785,15.236,3.538,22.834c1.485,15.203,1.538,30.299,0.825,45.249c-0.733,14.951-2.233,29.771-4.324,44.455
			c-2.078,14.686-4.68,29.248-7.661,43.701c-2.976,14.455-6.346,28.801-10.061,43.037c-7.424,28.475-15.934,56.598-25.427,84.346
			c-18.956,55.514-41.319,109.701-66.039,162.715c-24.753,53.012-51.891,104.82-81.117,155.473
			c-29.211,50.58-60.503,100.051-94.018,147.992c-33.536,47.926-69.271,94.398-107.864,138.58
			c-19.291,22.094-39.371,43.547-60.333,64.205c-20.953,20.662-42.92,40.416-66.264,58.729
			c-11.676,9.15-23.748,17.881-36.342,25.984c-12.595,8.094-25.701,15.596-39.618,21.912c-6.961,3.148-14.125,5.998-21.558,8.355
			c-7.43,2.354-15.13,4.232-23.127,5.279c-7.985,1.037-16.306,1.236-24.68-0.027c-4.18-0.627-8.359-1.633-12.428-3.055
			c-2.035-0.709-4.04-1.523-5.998-2.445c-0.98-0.459-1.948-0.943-2.902-1.455c-0.48-0.25-0.949-0.52-1.422-0.783l-1.498-0.875
			l-1.198-0.752c-0.482-0.312-1.007-0.645-1.434-0.941c-0.895-0.605-1.772-1.234-2.63-1.885c-1.72-1.299-3.365-2.686-4.927-4.145
			c-3.128-2.916-5.929-6.113-8.391-9.477c-4.939-6.732-8.552-14.064-11.277-21.482c-2.722-7.432-4.577-14.982-5.893-22.518
			c-1.315-7.537-2.075-15.07-2.481-22.566c-0.793-14.996-0.174-29.844,1.197-44.527c1.382-14.684,3.568-29.207,6.195-43.605
			c5.282-28.799,12.65-57.041,20.927-84.932c8.315-27.889,17.857-55.35,28.042-82.533c20.46-54.344,43.867-107.465,69.182-159.607
			C1780.164,2526.027,1807.478,2474.881,1836.453,2424.701z M1836.453,2424.701c-28.954,50.191-55.886,101.561-80.392,154.051
			c-24.48,52.492-46.596,106.109-65.276,160.857c-9.352,27.365-17.724,55.051-24.987,82.979
			c-3.636,13.963-6.933,28.002-9.823,42.107c-2.899,14.1-5.417,28.264-7.415,42.465c-2.01,14.199-3.436,28.453-4.112,42.67
			c-0.663,14.209-0.57,28.41,0.823,42.314c1.409,13.861,4.11,27.549,9.209,39.717c2.552,6.059,5.727,11.689,9.605,16.467
			c1.933,2.395,4.042,4.566,6.31,6.482c1.132,0.961,2.306,1.857,3.519,2.682c0.605,0.416,1.22,0.812,1.846,1.191
			c0.326,0.207,0.579,0.34,0.863,0.512l1.134,0.639c-0.032-0.029,0.27,0.139,0.388,0.197l0.486,0.252
			c0.328,0.158,0.65,0.328,0.983,0.479c0.658,0.314,1.325,0.607,2,0.885c1.348,0.557,2.728,1.041,4.137,1.455
			c2.815,0.834,5.739,1.396,8.742,1.699c6.005,0.617,12.303,0.215,18.628-0.916c12.684-2.293,25.367-7.332,37.547-13.537
			c12.204-6.242,23.992-13.717,35.401-21.832c11.407-8.131,22.451-16.916,33.222-26.078c21.536-18.357,41.838-38.373,61.449-59.076
			c19.586-20.74,38.308-42.375,56.49-64.477c36.314-44.26,70.253-90.58,102.436-138.094c32.169-47.543,62.532-96.307,91.28-146.082
			c28.703-49.719,55.811-100.424,80.906-152.035c25.075-51.621,48.235-104.172,68.42-157.75
			c10.044-26.801,19.447-53.826,27.602-81.166c8.13-27.336,15.323-54.928,20.443-82.765c2.546-13.914,4.658-27.871,5.983-41.821
			c1.32-13.942,1.898-27.894,1.198-41.591c-0.718-13.659-2.698-27.172-7.062-39.317c-2.187-6.05-4.992-11.715-8.536-16.616
			c-1.768-2.454-3.723-4.71-5.857-6.735c-1.065-1.015-2.179-1.97-3.338-2.86c-0.578-0.448-1.168-0.879-1.77-1.294l-0.83-0.563
			l-1.102-0.694l-0.846-0.506c-0.32-0.179-0.634-0.368-0.959-0.538c-0.643-0.353-1.295-0.688-1.959-1.005
			c-1.325-0.639-2.69-1.209-4.092-1.71c-2.801-1.006-5.743-1.748-8.788-2.226c-6.089-0.969-12.562-0.903-19.091-0.081
			c-13.102,1.672-26.312,6.182-39.026,11.897c-12.742,5.75-25.089,12.773-37.064,20.455c-11.98,7.692-23.602,16.07-34.893,24.911
			c-11.302,8.834-22.308,18.098-33.07,27.662c-10.771,9.555-21.269,19.444-31.546,29.572
			c-20.556,20.253-40.335,41.358-59.358,63.141c-38.066,43.561-73.435,89.527-106.649,136.979
			C1896.461,2325.521,1865.443,2374.531,1836.453,2424.701z"/>
	</g>
	<g>
		<path fill="#231F20" d="M2651.119,1733.727c-28.969,50.184-59.607,99.41-92.09,147.42
			c-32.504,47.991-66.811,94.815-103.651,139.698c-18.45,22.411-37.473,44.394-57.464,65.539
			c-20.02,21.108-40.801,41.599-63.098,60.57c-11.154,9.473-22.649,18.609-34.67,27.152c-12.028,8.525-24.575,16.48-37.954,23.287
			c-6.692,3.395-13.594,6.5-20.775,9.127c-7.18,2.625-14.641,4.793-22.431,6.148c-7.78,1.348-15.927,1.883-24.216,0.973
			c-4.139-0.451-8.3-1.277-12.383-2.527c-2.041-0.623-4.062-1.354-6.043-2.191c-0.991-0.418-1.974-0.863-2.943-1.334
			c-0.487-0.23-0.965-0.482-1.446-0.725l-1.524-0.818l-1.23-0.697c-0.492-0.295-1.029-0.607-1.467-0.887
			c-0.918-0.57-1.82-1.166-2.706-1.783c-1.774-1.234-3.479-2.561-5.107-3.967c-3.262-2.807-6.217-5.92-8.845-9.223
			c-5.272-6.609-9.255-13.908-12.345-21.334c-3.089-7.441-5.309-15.044-6.983-22.649c-1.674-7.61-2.785-15.235-3.538-22.834
			c-1.485-15.203-1.538-30.3-0.825-45.25c0.734-14.951,2.233-29.771,4.324-44.455c2.078-14.686,4.68-29.248,7.661-43.702
			c2.976-14.456,6.346-28.801,10.061-43.038c7.425-28.473,15.934-56.596,25.427-84.345c18.957-55.513,41.318-109.7,66.039-162.713
			c24.753-53.013,51.891-104.822,81.118-155.474c29.21-50.579,60.503-100.051,94.018-147.99
			c33.536-47.928,69.271-94.398,107.863-138.582c19.291-22.093,39.371-43.546,60.333-64.203
			c20.952-20.664,42.919-40.417,66.264-58.729c11.676-9.15,23.748-17.881,36.341-25.984c12.596-8.093,25.701-15.597,39.618-21.913
			c6.961-3.148,14.126-5.999,21.559-8.355c7.429-2.354,15.13-4.233,23.126-5.279c7.985-1.037,16.307-1.237,24.68,0.026
			c8.353,1.234,16.74,4.065,24.151,8.556c7.426,4.469,13.773,10.528,18.678,17.255c4.939,6.733,8.552,14.065,11.276,21.483
			c2.723,7.432,4.577,14.982,5.894,22.517c1.315,7.539,2.075,15.072,2.481,22.567c0.793,14.996,0.174,29.844-1.197,44.526
			c-1.383,14.685-3.568,29.208-6.194,43.606c-5.282,28.799-12.649,57.04-20.928,84.932c-8.315,27.888-17.857,55.349-28.042,82.533
			c-20.46,54.343-43.867,107.463-69.183,159.605C2707.408,1632.402,2680.095,1683.548,2651.119,1733.727z M2651.119,1733.727
			c28.954-50.191,55.886-101.559,80.393-154.05c24.48-52.492,46.596-106.109,65.276-160.858
			c9.353-27.365,17.724-55.051,24.987-82.978c3.636-13.962,6.934-28.001,9.823-42.106c2.899-14.101,5.417-28.264,7.415-42.466
			c2.011-14.198,3.436-28.452,4.112-42.668c0.662-14.209,0.569-28.41-0.823-42.314c-1.41-13.862-4.111-27.549-9.211-39.717
			c-2.551-6.059-5.727-11.689-9.604-16.468c-3.866-4.792-8.437-8.677-13.573-11.448c-5.141-2.77-10.824-4.421-16.833-5.023
			c-6.005-0.617-12.303-0.214-18.628,0.917c-12.684,2.292-25.367,7.331-37.547,13.538c-12.204,6.241-23.992,13.716-35.4,21.831
			c-11.407,8.131-22.451,16.916-33.223,26.08c-21.535,18.357-41.838,38.374-61.448,59.075
			c-19.586,20.742-38.308,42.376-56.49,64.477c-36.313,44.26-70.253,90.581-102.436,138.095
			c-32.169,47.543-62.533,96.306-91.281,146.081c-28.703,49.718-55.811,100.422-80.906,152.035
			c-25.075,51.621-48.235,104.17-68.42,157.75c-10.043,26.8-19.447,53.824-27.602,81.166c-8.13,27.335-15.322,54.928-20.443,82.765
			c-2.546,13.913-4.658,27.87-5.982,41.821c-1.321,13.941-1.899,27.894-1.199,41.591c0.718,13.658,2.698,27.172,7.062,39.316
			c2.188,6.05,4.992,11.714,8.537,16.614c1.768,2.455,3.723,4.711,5.857,6.736c1.065,1.014,2.179,1.969,3.338,2.859
			c0.578,0.447,1.168,0.879,1.77,1.293l0.83,0.564l1.102,0.695l0.848,0.506c0.318,0.178,0.633,0.367,0.957,0.537
			c0.643,0.354,1.297,0.688,1.96,1.006c1.325,0.639,2.69,1.209,4.092,1.709c2.801,1.006,5.743,1.748,8.787,2.227
			c6.089,0.969,12.562,0.902,19.092,0.08c13.101-1.672,26.312-6.182,39.025-11.896c12.742-5.75,25.089-12.773,37.064-20.455
			c11.98-7.692,23.602-16.07,34.893-24.911c11.302-8.834,22.308-18.098,33.069-27.662c10.772-9.555,21.27-19.444,31.546-29.572
			c20.557-20.253,40.336-41.357,59.358-63.141c38.065-43.561,73.435-89.527,106.649-136.978
			C2591.111,1832.907,2622.129,1783.897,2651.119,1733.727z"/>
	</g>
</g>
</svg>
